<svg width="18" height="16" viewBox="0 0 18 16" fill="none" xmlns="http://www.w3.org/2000/svg">
<path d="M7.06403 10.6695C8.16158 9.64991 9.22394 8.67366 10.2863 7.69018C11.8341 6.25111 13.389 4.81928 14.9298 3.37298C15.1056 3.21389 15.1971 2.96079 15.3237 2.75107C15.0212 2.56306 14.8172 2.8017 14.6061 2.93909C11.3698 5.04345 8.13343 7.15505 4.90413 9.27387C4.68603 9.4185 4.5031 9.44742 4.25686 9.36065C3.12414 8.94845 1.97735 8.55795 0.837594 8.16022C0.816488 8.15299 0.788345 8.15299 0.767239 8.13853C0.394356 7.9939 0.0144374 7.81311 0.000366322 7.3503C-0.0137047 6.89471 0.380285 6.75731 0.71799 6.61992C6.02981 4.47217 11.3416 2.33165 16.6535 0.191131C16.8927 0.0971219 17.1459 0.0248072 17.3992 0.0031128C17.8284 -0.0330446 18.0676 0.248983 17.9832 0.682872C17.35 3.98766 16.7097 7.29244 16.0695 10.59C15.7811 12.0797 15.4926 13.5621 15.2041 15.0446C15.0212 15.9775 14.1981 16.2884 13.4523 15.7027C11.5175 14.184 9.58275 12.6582 7.64798 11.1324C7.47913 10.995 7.29621 10.8503 7.06403 10.6695Z" fill="#2770F1"/>
</svg>
