<?xml version="1.0" encoding="utf-8"?><svg xmlns="http://www.w3.org/2000/svg" xmlns:xlink="http://www.w3.org/1999/xlink"><symbol viewBox="0 0 24 24" id="all" xmlns="http://www.w3.org/2000/svg"><path d="M4 4h6v6H4V4zm0 10h6v6H4v-6zM14 4h6v6h-6V4zm0 10h6v6h-6v-6z"/></symbol><symbol viewBox="0 0 24 24" id="arrow-down" xmlns="http://www.w3.org/2000/svg"><path d="M12 13.172l4.95-4.95 1.414 1.414L12 16 5.636 9.636 7.05 8.222l4.95 4.95z"/></symbol><symbol viewBox="0 0 24 24" id="arrow-left" xmlns="http://www.w3.org/2000/svg"><path d="M13.172 12l-4.95-4.95 1.414-1.414L16 12l-6.364 6.364-1.414-1.414 4.95-4.95z"/></symbol><symbol viewBox="0 0 24 24" id="arrow-right" xmlns="http://www.w3.org/2000/svg"><path d="M10.828 12l4.95 4.95-1.414 1.414L8 12l6.364-6.364 1.414 1.414-4.95 4.95z"/></symbol><symbol viewBox="0 0 24 24" id="arrow-up" xmlns="http://www.w3.org/2000/svg"><path d="M12 10.828l-4.95 4.95-1.414-1.414L12 8l6.364 6.364-1.414 1.414-4.95-4.95z"/></symbol><symbol viewBox="0 0 24 24" id="burger" xmlns="http://www.w3.org/2000/svg"><path d="M3 4h18v2H3V4zm0 7h18v2H3v-2zm0 7h18v2H3v-2z"/></symbol><symbol viewBox="0 0 24 24" id="cart" xmlns="http://www.w3.org/2000/svg"><path d="M4 6.414L.757 3.172l1.415-1.415L5.414 5h15.242a1 1 0 01.958 1.287l-2.4 8a1 1 0 01-.958.713H6v2h11v2H5a1 1 0 01-1-1V6.414zM6 7v6h11.512l1.8-6H6zm-.5 16a1.5 1.5 0 110-3 1.5 1.5 0 010 3zm12 0a1.5 1.5 0 110-3 1.5 1.5 0 010 3z"/></symbol><symbol viewBox="0 0 24 24" id="case" xmlns="http://www.w3.org/2000/svg"><path d="M7 5V2a1 1 0 011-1h8a1 1 0 011 1v3h4a1 1 0 011 1v14a1 1 0 01-1 1H3a1 1 0 01-1-1V6a1 1 0 011-1h4zM4 16v3h16v-3H4zm0-2h16V7H4v7zM9 3v2h6V3H9zm2 8h2v2h-2v-2z"/></symbol><symbol viewBox="0 0 24 24" id="close" xmlns="http://www.w3.org/2000/svg"><path d="M12 10.586l4.95-4.95 1.414 1.414-4.95 4.95 4.95 4.95-1.414 1.414-4.95-4.95-4.95 4.95-1.414-1.414 4.95-4.95-4.95-4.95L7.05 5.636l4.95 4.95z"/></symbol><symbol viewBox="0 0 24 24" id="delivery" xmlns="http://www.w3.org/2000/svg"><path d="M8.965 18a3.5 3.5 0 01-6.93 0H1V6a1 1 0 011-1h14a1 1 0 011 1v2h3l3 4.056V18h-2.035a3.5 3.5 0 01-6.93 0h-5.07zM15 7H3v8.05a3.5 3.5 0 015.663.95h5.674c.168-.353.393-.674.663-.95V7zm2 6h4v-.285L18.992 10H17v3zm.5 6a1.5 1.5 0 100-3 1.5 1.5 0 000 3zM7 17.5a1.5 1.5 0 10-3 0 1.5 1.5 0 003 0z"/></symbol><symbol viewBox="0 0 24 24" id="filter" xmlns="http://www.w3.org/2000/svg"><path d="M21 4v2h-1l-5 7.5V22H9v-8.5L4 6H3V4h18zM6.404 6L11 12.894V20h2v-7.106L17.596 6H6.404z"/></symbol><symbol viewBox="0 0 24 24" id="guarantee" xmlns="http://www.w3.org/2000/svg"><path d="M17 15.245v6.872a.5.5 0 01-.757.429L12 20l-4.243 2.546a.5.5 0 01-.757-.43v-6.87a8 8 0 1110 0v-.001zm-8 1.173v3.05l3-1.8 3 1.8v-3.05A7.978 7.978 0 0112 17a7.978 7.978 0 01-3-.582zM12 15a6 6 0 100-12 6 6 0 000 12z"/></symbol><symbol viewBox="0 0 24 24" id="instagram" xmlns="http://www.w3.org/2000/svg"><path d="M12 2c2.717 0 3.056.01 4.122.06 1.065.05 1.79.217 2.428.465.66.254 1.216.598 1.772 1.153.509.5.902 1.105 1.153 1.772.247.637.415 1.363.465 2.428.047 1.066.06 1.405.06 4.122 0 2.717-.01 3.056-.06 4.122-.05 1.065-.218 1.79-.465 2.428a4.883 4.883 0 01-1.153 1.772c-.5.508-1.105.902-1.772 1.153-.637.247-1.363.415-2.428.465-1.066.047-1.405.06-4.122.06-2.717 0-3.056-.01-4.122-.06-1.065-.05-1.79-.218-2.428-.465a4.89 4.89 0 01-1.772-1.153 4.904 4.904 0 01-1.153-1.772c-.248-.637-.415-1.363-.465-2.428C2.013 15.056 2 14.717 2 12c0-2.717.01-3.056.06-4.122.05-1.066.217-1.79.465-2.428a4.88 4.88 0 011.153-1.772A4.897 4.897 0 015.45 2.525c.638-.248 1.362-.415 2.428-.465C8.944 2.013 9.283 2 12 2zm0 5a5 5 0 100 10 5 5 0 000-10zm6.5-.25a1.25 1.25 0 10-2.5 0 1.25 1.25 0 002.5 0zM12 9a3 3 0 110 6 3 3 0 010-6z"/></symbol><symbol viewBox="0 0 119 28" id="logo" xmlns="http://www.w3.org/2000/svg"><path d="M23 4.998v17.998l-6-.002v3.002l6 .002c1.893 0 3-1.107 3-3V5c0-1.894-1.107-3.002-3-3.002l-6-.002v3l6 .002zm-18 18v-18l6-.002v-3l-6 .002C3.106 1.998 2 3.106 2 5v18c0 1.894 1.106 2.998 3 2.998l6-.002v-3l-6 .002z"/><path d="M10 10h8v8h-8zm30 10.24c-.72 0-1.407-.107-2.06-.32a4.705 4.705 0 01-1.68-1.02c-.48-.453-.86-1.02-1.14-1.7-.28-.68-.42-1.48-.42-2.4v-.4c0-.867.14-1.627.42-2.28.28-.653.66-1.2 1.14-1.64.48-.44 1.04-.767 1.68-.98A6.24 6.24 0 0140 9.16c.72 0 1.4.113 2.04.34.64.213 1.2.54 1.68.98.493.44.88.987 1.16 1.64.28.653.42 1.413.42 2.28v.4c0 .907-.14 1.7-.42 2.38a4.7 4.7 0 01-1.16 1.7c-.48.453-1.04.793-1.68 1.02-.64.227-1.32.34-2.04.34zM40 18c.747 0 1.367-.267 1.86-.8.507-.533.76-1.333.76-2.4v-.4c0-.973-.253-1.713-.76-2.22-.493-.52-1.113-.78-1.86-.78-.76 0-1.387.26-1.88.78-.493.507-.74 1.247-.74 2.22v.4c0 1.08.247 1.887.74 2.42.493.52 1.12.78 1.88.78zm7.192-12h2.64v7.76l3.92-4.36h3.04l-4.08 4.54 4.48 6.06h-3.08l-3.08-4.32-1.2 1.26V20h-2.64V6zm15.913 14.24c-.72 0-1.406-.107-2.06-.32a4.705 4.705 0 01-1.68-1.02c-.48-.453-.86-1.02-1.14-1.7-.28-.68-.42-1.48-.42-2.4v-.4c0-.867.14-1.627.42-2.28.28-.653.66-1.2 1.14-1.64.48-.44 1.04-.767 1.68-.98a6.24 6.24 0 012.06-.34c.72 0 1.4.113 2.04.34.64.213 1.2.54 1.68.98.494.44.88.987 1.16 1.64.28.653.42 1.413.42 2.28v.4c0 .907-.14 1.7-.42 2.38a4.7 4.7 0 01-1.16 1.7c-.48.453-1.04.793-1.68 1.02-.64.227-1.32.34-2.04.34zm0-2.24c.747 0 1.367-.267 1.86-.8.507-.533.76-1.333.76-2.4v-.4c0-.973-.253-1.713-.76-2.22-.493-.52-1.113-.78-1.86-.78-.76 0-1.386.26-1.88.78-.493.507-.74 1.247-.74 2.22v.4c0 1.08.247 1.887.74 2.42.494.52 1.12.78 1.88.78zm7.193-8.6h2.46v1.56c.266-.48.686-.9 1.26-1.26.573-.36 1.3-.54 2.18-.54 1.413 0 2.513.44 3.3 1.32.8.867 1.2 2.173 1.2 3.92v.4c0 1.827-.407 3.193-1.22 4.1-.8.893-1.894 1.34-3.28 1.34-.72 0-1.36-.153-1.92-.46a4.122 4.122 0 01-1.34-1.24V24h-2.64V9.4zm5.28 8.6c.693 0 1.273-.26 1.74-.78.466-.533.7-1.34.7-2.42v-.4c0-1-.227-1.747-.68-2.24-.454-.507-1.04-.76-1.76-.76-.76 0-1.394.22-1.9.66-.494.427-.74 1.073-.74 1.94v1.2c0 .947.24 1.653.72 2.12.493.453 1.133.68 1.92.68zm7.024-8.6h2.44v1.56a2.81 2.81 0 01.4-.64c.174-.227.38-.42.62-.58.24-.173.5-.313.78-.42a2.79 2.79 0 01.96-.16c.254 0 .467.013.64.04.187.027.307.053.36.08v2.34a2.847 2.847 0 00-.52-.14c-.2-.053-.473-.08-.82-.08-.4 0-.74.067-1.02.2s-.513.313-.7.54a2.04 2.04 0 00-.38.76c-.08.293-.12.6-.12.92V20h-2.64V9.4zM95 20.24c-.72 0-1.407-.107-2.06-.32a4.705 4.705 0 01-1.68-1.02c-.48-.453-.86-1.02-1.14-1.7-.28-.68-.42-1.48-.42-2.4v-.4c0-.867.14-1.627.42-2.28.28-.653.66-1.2 1.14-1.64.48-.44 1.04-.767 1.68-.98A6.24 6.24 0 0195 9.16c.72 0 1.4.113 2.04.34.64.213 1.2.54 1.68.98.493.44.88.987 1.16 1.64.28.653.42 1.413.42 2.28v.4c0 .907-.14 1.7-.42 2.38a4.7 4.7 0 01-1.16 1.7c-.48.453-1.04.793-1.68 1.02-.64.227-1.32.34-2.04.34zM95 18c.747 0 1.367-.267 1.86-.8.507-.533.76-1.333.76-2.4v-.4c0-.973-.253-1.713-.76-2.22-.493-.52-1.113-.78-1.86-.78-.76 0-1.387.26-1.88.78-.493.507-.74 1.247-.74 2.22v.4c0 1.08.247 1.887.74 2.42.493.52 1.12.78 1.88.78zm7.192-8.6h2.44v1.58c.12-.24.274-.467.46-.68.2-.213.427-.407.68-.58.267-.173.554-.307.86-.4.32-.107.66-.16 1.02-.16.854 0 1.52.173 2 .52.494.347.84.807 1.04 1.38a3.536 3.536 0 011.26-1.36c.56-.36 1.22-.54 1.98-.54 1.134 0 1.994.327 2.58.98.587.64.88 1.627.88 2.96V20h-2.64v-6.3c0-.84-.14-1.433-.42-1.78-.266-.347-.7-.52-1.3-.52-.533 0-.986.207-1.36.62-.373.4-.56.96-.56 1.68V20h-2.64v-6.3c0-.84-.14-1.433-.42-1.78-.266-.347-.7-.52-1.3-.52-.533 0-.986.207-1.36.62-.373.4-.56.96-.56 1.68V20h-2.64V9.4z"/></symbol><symbol viewBox="0 0 24 24" id="rent" xmlns="http://www.w3.org/2000/svg"><path d="M12 22C6.477 22 2 17.523 2 12S6.477 2 12 2s10 4.477 10 10-4.477 10-10 10zm0-2a8 8 0 100-16.001A8 8 0 0012 20zM7 9l3-3.5L13 9h-2v4H9V9H7zm10 6l-3 3.5-3-3.5h2v-4h2v4h2z"/></symbol><symbol viewBox="0 0 24 24" id="sale" xmlns="http://www.w3.org/2000/svg"><path d="M17.5 21a3.5 3.5 0 110-7 3.5 3.5 0 010 7zm0-2a1.5 1.5 0 100-3 1.5 1.5 0 000 3zm-11-9a3.5 3.5 0 110-7 3.5 3.5 0 010 7zm0-2a1.5 1.5 0 100-3 1.5 1.5 0 000 3zm12.571-4.485l1.414 1.414L4.93 20.485l-1.414-1.414L19.07 3.515h.001z"/></symbol><symbol viewBox="0 0 24 24" id="search" xmlns="http://www.w3.org/2000/svg"><path d="M18.031 16.617l4.283 4.282-1.415 1.415-4.282-4.283A8.96 8.96 0 0111 20c-4.968 0-9-4.032-9-9s4.032-9 9-9 9 4.032 9 9a8.96 8.96 0 01-1.969 5.617zm-2.006-.742A6.977 6.977 0 0018 11c0-3.868-3.133-7-7-7-3.868 0-7 3.132-7 7 0 3.867 3.132 7 7 7a6.977 6.977 0 004.875-1.975l.15-.15z"/></symbol><symbol viewBox="0 0 24 24" id="service" xmlns="http://www.w3.org/2000/svg"><path d="M19.938 8H21a2 2 0 012 2v4a2 2 0 01-2 2h-1.062A8 8 0 0112 23v-2a6 6 0 006-6V9A6 6 0 106 9v7H3a2 2 0 01-2-2v-4a2 2 0 012-2h1.062a8.001 8.001 0 0115.876 0zM3 10v4h1v-4H3zm17 0v4h1v-4h-1zM7.76 15.785l1.06-1.696A5.972 5.972 0 0012 15a5.972 5.972 0 003.18-.911l1.06 1.696A7.963 7.963 0 0112 17a7.963 7.963 0 01-4.24-1.215z"/></symbol><symbol viewBox="0 0 24 24" id="settings" xmlns="http://www.w3.org/2000/svg"><path d="M12 1l9.5 5.5v11L12 23l-9.5-5.5v-11L12 1zm0 2.311L4.5 7.653v8.694l7.5 4.342 7.5-4.342V7.653L12 3.311zM12 16a4 4 0 110-8 4 4 0 010 8zm0-2a2 2 0 100-4 2 2 0 000 4z"/></symbol><symbol viewBox="0 0 24 24" id="youtube" xmlns="http://www.w3.org/2000/svg"><path d="M21.543 6.498C22 8.28 22 12 22 12s0 3.72-.457 5.502c-.254.985-.997 1.76-1.938 2.022C17.896 20 12 20 12 20s-5.893 0-7.605-.476c-.945-.266-1.687-1.04-1.938-2.022C2 15.72 2 12 2 12s0-3.72.457-5.502c.254-.985.997-1.76 1.938-2.022C6.107 4 12 4 12 4s5.896 0 7.605.476c.945.266 1.687 1.04 1.938 2.022zM10 15.5l6-3.5-6-3.5v7z"/></symbol></svg>